<svg id="Capa_1" data-name="Capa 1" xmlns="http://www.w3.org/2000/svg" viewBox="0 0 2833.79 704.68"><defs><style>.cls-1,.cls-2,.cls-5{fill:#2d698e;}.cls-1,.cls-3{opacity:0.75;}.cls-2,.cls-4{opacity:0.5;}.cls-3,.cls-4,.cls-6{fill:#272542;}</style></defs><title>logo2</title><rect class="cls-1" x="188.3" y="33.45" width="310.85" height="603.68"/><path class="cls-2" d="M667.43,33.45c0,178.78-144.93,323.71-323.71,323.71S20,212.23,20,33.45Z"/><path class="cls-3" d="M1591.41,635.69c-118.62-6.92-226.84-84.29-267.29-203.76-53.23-157.22,31.07-327.84,188.3-381.07a299.4,299.4,0,0,1,205.2,4.5Z"/><path class="cls-4" d="M1884.51,451.23C1837.77,560.47,1728.29,636,1602.19,633.57c-166-3.24-297.88-140.41-294.64-306.37a299.41,299.41,0,0,1,73.83-191.52Z"/><path class="cls-5" d="M687,546.85c-.35,24.84-1,50.84-16.83,72.17-11.34,14.9-32.29,21.62-53.24,21.62s-41.56-6.72-52.56-21.62c-13.39-18.7-15.11-40.9-15.11-62.82v-9.35L551.66,345h27.47l-2.4,201.89v9.06c0,16.36,1,33,8.93,47,5.84,10.23,18.2,16.66,31.6,16.66s26.1-6.43,31.94-16.66c9.62-16.65,10-37.11,10.31-56.1L661.91,345h27.14Z"/><path class="cls-5" d="M730.27,345h27.47L754.65,616.1h80l-.34,21H726.83Z"/><path class="cls-5" d="M867.66,345h107.5l-.34,21h-80l-2.06,181.73H959l-.34,21H892.39L892,616.1h80l-.34,21H864.22Z"/><path class="cls-5" d="M1006.76,345h36.76l78,240.75L1124.23,345h27.48l-3.43,292.18h-36.76l-78-240.76-2.75,240.76h-27.48Z"/><path class="cls-5" d="M1196.71,345h27.47l-3.43,292.18h-27.48Z"/><path class="cls-6" d="M1800.06,38.4h36.75l58,292.18H1867l-8.25-40.9h-89.3l-9.28,40.9h-25.07Zm16.48,38.86L1774,268.64h80.72Z"/><path class="cls-6" d="M1978,55.94c-10,0-18.89,4.67-22.67,12.27-6.53,13.14-6.87,32.14-6.87,48.79,0,19.28,13.39,35.65,29.19,49.38l35,12.85c20.95,18.12,28.17,43.83,28.17,69.54,0,24,0,49.38-14.77,67.79-11,13.73-31.61,17.53-51.18,17.53s-39.16-5.26-49.81-18.7c-8.59-10.81-12-23.38-13.4-36.52l27.48-2.34c1,7.89,3.09,15.77,7.22,22.79,5.49,9.05,16.83,13.73,28.85,13.73s24-4.09,29.54-12.86c8.59-13.44,8.59-33,8.59-50.54,0-18.7-10.65-36.23-25.76-49.38l-35-12.86c-22.33-19.28-31.6-44.41-31.6-72.16v-1.46c.34-21.33.69-45,13-61.95,8.93-12.56,26.79-16.94,44.31-16.94,17.18,0,34.35,5.55,43.28,18.11,6.87,9.94,10,20.75,11.34,32.14L2005.8,93C2004.43,75.8,1998.59,55.94,1978,55.94Z"/><path class="cls-6" d="M2058,38.4h134.65v21h-53.93l-3.09,271.14h-27.48l3.09-271.14h-53.59Z"/><path class="cls-6" d="M2215,38.4h107.51l-.34,21h-80l-2.06,181.73h66.3l-.35,21h-66.29l-.34,47.33h80l-.34,21H2211.54Z"/><path class="cls-6" d="M2354.09,38.4h27.48l-3.09,271.14h80l-.34,21H2350.66Z"/><path class="cls-6" d="M2535.11,38.4h36.75l58,292.18h-27.82l-8.25-40.9h-89.3l-9.28,40.9h-25.07Zm16.48,38.86L2509,268.64h80.72Z"/><path class="cls-6" d="M2657.38,38.4h36.76l78,240.76,2.75-240.76h27.47l-3.43,292.18h-36.75l-78-240.75-2.74,240.75H2654Z"/></svg>